# xmcd
# 
# Track frame offsets:
#     150
#     24855
#     46370
#     64817
#     88075
#     117920
#     152455
#     174480
#     199110
#     221865
# 
# Disc length: 3285
# 
# Revision: 10
# Processed by: cddbd v1.5.2PL0 Copyright (c) Steve Scherf et al.
# Submitted via: fre:ac v1.0.17
# 
DISCID=830cd30a
DTITLE=Ayumi Hamasaki - Endless Sorrow (Maxi Single)
DYEAR=2001
DGENRE=JPop
TTITLE0=Endless Sorrow (Original Mix)
TTITLE1=Vogue (Kirari Natsu Ayu Mix)
TTITLE2=Endless Sorrow (Natural Green Dub Mix)
TTITLE3=Endless Sorrow (Nicely Nice Skyblue remix)
TTITLE4=Never Ever (Dub's Uncategorized Mix 001)
TTITLE5=Endless Sorrow (Ram's Advance Mix)
TTITLE6=Endless Sorrow (Breat Mini's Gothic Mix)
TTITLE7=Endless Sorrow (Liquid Heart Mix)
TTITLE8=Endless Sorrow (Juicy Ariyama Mix)
TTITLE9=Endless Sorrow (Original Mix Instrumental)
EXTD=
EXTT0=
EXTT1=
EXTT2=
EXTT3=
EXTT4=
EXTT5=
EXTT6=
EXTT7=
EXTT8=
EXTT9=
PLAYORDER=
